<svg width="24" height="21" viewBox="0 0 24 21" fill="none" xmlns="http://www.w3.org/2000/svg">
<path d="M8 10.4384C9.06087 10.4384 10.0783 10.0806 10.8284 9.44366C11.5786 8.80672 12 7.94284 12 7.04206C12 6.14129 11.5786 5.27741 10.8284 4.64047C10.0783 4.00352 9.06087 3.64569 8 3.64569C6.93913 3.64569 5.92172 4.00352 5.17157 4.64047C4.42143 5.27741 4 6.14129 4 7.04206C4 7.94284 4.42143 8.80672 5.17157 9.44366C5.92172 10.0806 6.93913 10.4384 8 10.4384ZM17 10.4384C17.7957 10.4384 18.5587 10.1701 19.1213 9.69235C19.6839 9.21465 20 8.56674 20 7.89116C20 7.21558 19.6839 6.56767 19.1213 6.08996C18.5587 5.61225 17.7957 5.34388 17 5.34388C16.2044 5.34388 15.4413 5.61225 14.8787 6.08996C14.3161 6.56767 14 7.21558 14 7.89116C14 8.56674 14.3161 9.21465 14.8787 9.69235C15.4413 10.1701 16.2044 10.4384 17 10.4384ZM4.25 12.1366C3.65326 12.1366 3.08097 12.3379 2.65901 12.6962C2.23705 13.0545 2 13.5404 2 14.0471V14.2594C2 14.2594 2 18.0803 8 18.0803C14 18.0803 14 14.2594 14 14.2594V14.0471C14 13.5404 13.7629 13.0545 13.341 12.6962C12.919 12.3379 12.3467 12.1366 11.75 12.1366H4.25ZM17 16.8066C15.829 16.8066 14.932 16.6529 14.245 16.4177C14.6448 15.8448 14.8958 15.2058 14.981 14.5438C14.9907 14.4634 14.9971 14.3826 15 14.3018V14.0471C15.0013 13.3357 14.678 12.6516 14.098 12.1383C14.132 12.1371 14.166 12.1366 14.2 12.1366H19.8C20.3835 12.1366 20.9431 12.3334 21.3556 12.6837C21.7682 13.0341 22 13.5092 22 14.0046C22 14.0046 22 16.8066 17 16.8066Z" fill="#777777"/>
</svg>
