<svg width="21" height="15" viewBox="0 0 21 15" fill="none" xmlns="http://www.w3.org/2000/svg">
<path fill-rule="evenodd" clip-rule="evenodd" d="M10.5 0.625C10.2492 0.624976 10.0013 0.663468 9.77308 0.737867C9.54489 0.812266 9.34177 0.920833 9.17746 1.05621C9.01316 1.19159 8.89152 1.35061 8.82079 1.52251C8.75005 1.6944 8.73188 1.87515 8.7675 2.0525C7.4993 2.31995 6.38624 2.87326 5.59457 3.62979C4.80289 4.38632 4.37507 5.30548 4.375 6.25V11.25H3.5C3.26794 11.25 3.04538 11.3158 2.88128 11.4331C2.71719 11.5503 2.625 11.7092 2.625 11.875C2.625 12.0408 2.71719 12.1997 2.88128 12.3169C3.04538 12.4342 3.26794 12.5 3.5 12.5H17.5C17.7321 12.5 17.9546 12.4342 18.1187 12.3169C18.2828 12.1997 18.375 12.0408 18.375 11.875C18.375 11.7092 18.2828 11.5503 18.1187 11.4331C17.9546 11.3158 17.7321 11.25 17.5 11.25H16.625V6.25C16.6249 5.30548 16.1971 4.38632 15.4054 3.62979C14.6138 2.87326 13.5007 2.31995 12.2325 2.0525C12.2681 1.87515 12.2499 1.6944 12.1792 1.52251C12.1085 1.35061 11.9868 1.19159 11.8225 1.05621C11.6582 0.920833 11.4551 0.812266 11.2269 0.737867C10.9987 0.663468 10.7508 0.624976 10.5 0.625ZM12.25 13.75C12.25 13.9158 12.1578 14.0747 11.9937 14.1919C11.8296 14.3092 11.6071 14.375 11.375 14.375H9.625C9.39294 14.375 9.17038 14.3092 9.00628 14.1919C8.84219 14.0747 8.75 13.9158 8.75 13.75C8.75 13.5842 8.84219 13.4253 9.00628 13.3081C9.17038 13.1908 9.39294 13.125 9.625 13.125H11.375C11.6071 13.125 11.8296 13.1908 11.9937 13.3081C12.1578 13.4253 12.25 13.5842 12.25 13.75Z" fill="#D0BC05"/>
</svg>
