<svg width="45" height="33" viewBox="0 0 45 33" fill="none" xmlns="http://www.w3.org/2000/svg">
<path d="M22.5 3.34613C12.1444 3.34613 3.75 9.34416 3.75 16.7436C3.75 24.143 12.1444 30.141 22.5 30.141C32.8556 30.141 41.25 24.143 41.25 16.7436C41.25 9.34416 32.8556 3.34613 22.5 3.34613Z" stroke="#CCCCCC" stroke-width="1.5" stroke-linecap="round" stroke-linejoin="round"/>
<path d="M8.00818 25.2456C8.00818 25.2456 12.1876 21.4326 22.5001 21.4326C32.8126 21.4326 36.9938 25.2456 36.9938 25.2456M22.5001 16.7435C23.9919 16.7435 25.4226 16.3201 26.4775 15.5663C27.5324 14.8126 28.1251 13.7903 28.1251 12.7243C28.1251 11.6583 27.5324 10.636 26.4775 9.88228C25.4226 9.12853 23.9919 8.70508 22.5001 8.70508C21.0082 8.70508 19.5775 9.12853 18.5226 9.88228C17.4677 10.636 16.8751 11.6583 16.8751 12.7243C16.8751 13.7903 17.4677 14.8126 18.5226 15.5663C19.5775 16.3201 21.0082 16.7435 22.5001 16.7435Z" stroke="#CCCCCC" stroke-width="1.5" stroke-linecap="round" stroke-linejoin="round"/>
</svg>
