<svg width="33" height="22" viewBox="0 0 33 22" fill="none" xmlns="http://www.w3.org/2000/svg">
<path fill-rule="evenodd" clip-rule="evenodd" d="M1.73684 0.5C1.2762 0.5 0.83443 0.65677 0.508709 0.935822C0.182988 1.21487 0 1.59335 0 1.98799C0 2.38263 0.182988 2.7611 0.508709 3.04016C0.83443 3.31921 1.2762 3.47598 1.73684 3.47598H31.2632C31.7238 3.47598 32.1656 3.31921 32.4913 3.04016C32.817 2.7611 33 2.38263 33 1.98799C33 1.59335 32.817 1.21487 32.4913 0.935822C32.1656 0.65677 31.7238 0.5 31.2632 0.5H1.73684ZM0 10.9159C0 10.5213 0.182988 10.1428 0.508709 9.86376C0.83443 9.5847 1.2762 9.42793 1.73684 9.42793H31.2632C31.7238 9.42793 32.1656 9.5847 32.4913 9.86376C32.817 10.1428 33 10.5213 33 10.9159C33 11.3106 32.817 11.689 32.4913 11.9681C32.1656 12.2471 31.7238 12.4039 31.2632 12.4039H1.73684C1.2762 12.4039 0.83443 12.2471 0.508709 11.9681C0.182988 11.689 0 11.3106 0 10.9159ZM0 19.8453C0 19.4507 0.182988 19.0722 0.508709 18.7932C0.83443 18.5141 1.2762 18.3574 1.73684 18.3574H31.2632C31.7238 18.3574 32.1656 18.5141 32.4913 18.7932C32.817 19.0722 33 19.4507 33 19.8453C33 20.24 32.817 20.6185 32.4913 20.8975C32.1656 21.1766 31.7238 21.3333 31.2632 21.3333H1.73684C1.2762 21.3333 0.83443 21.1766 0.508709 20.8975C0.182988 20.6185 0 20.24 0 19.8453Z" fill="#D0BC05"/>
</svg>
